# xmcd
#
# Track frame offsets: 
#        150
#        21362
#        50320
#        64130
#        83297
#        105890
#        125210
#        154937
#        177677
#        200697
#        216720
#        229757
#        261215
#
# Disc length: 3797 seconds
#
# Revision: 2
# Processed by: cddbd v1.5.2PL0 Copyright (c) Steve Scherf et al.
# Submitted via: ExactAudioCopy v1.3
#
DISCID=bc0ed30d
DTITLE=Tomas Fink Trio featuring Sandy Lomax - You Don`t Know What Lov
DTITLE=e is
DYEAR=1999
DGENRE=Jazz
TTITLE0=Cheek To Cheek
TTITLE1=You Dont Know What Love Is
TTITLE2=Just In Time
TTITLE3=Embraceable You
TTITLE4=Autumn Feeling
TTITLE5=Just On Of Those Things
TTITLE6=Alice In Wonderland
TTITLE7=Willow Weep For Me
TTITLE8=Sentimental Mood
TTITLE9=It Don´t Mean A Thing
TTITLE10=Summertime
TTITLE11=Green Dolphin Street
TTITLE12=Sotmy Monday Blues - Hokey Pokey
EXTD=YEAR: 1999
EXTT0=
EXTT1=
EXTT2=
EXTT3=
EXTT4=
EXTT5=
EXTT6=
EXTT7=
EXTT8=
EXTT9=
EXTT10=
EXTT11=
EXTT12=
PLAYORDER=
